<mxfile>
    <diagram id="Qlab7BlyAjxRTgfkOohs" name="Page-1">
        <mxGraphModel dx="2033" dy="614" grid="0" gridSize="10" guides="1" tooltips="1" connect="1" arrows="1" fold="1" page="0" pageScale="1" pageWidth="827" pageHeight="1169" background="#000000" math="0" shadow="0">
            <root>
                <mxCell id="0"/>
                <mxCell id="1" parent="0"/>
                <mxCell id="-xcbg-qOsnuhI51LGYwy-141" value="" style="endArrow=none;dashed=1;html=1;dashPattern=1 3;strokeWidth=2;exitX=0.427;exitY=-0.017;exitDx=0;exitDy=0;exitPerimeter=0;strokeColor=#FF0000;fontColor=#000000;" parent="1" edge="1">
                    <mxGeometry x="310" y="566.02" width="50" height="50" as="geometry">
                        <mxPoint x="311.2399999999998" y="791" as="sourcePoint"/>
                        <mxPoint x="310" y="566.02" as="targetPoint"/>
                    </mxGeometry>
                </mxCell>
                <mxCell id="-xcbg-qOsnuhI51LGYwy-59" value="fk_set_products_id" style="ellipse;whiteSpace=wrap;html=1;align=center;fontStyle=0;labelBackgroundColor=none;fillColor=#e1d5e7;strokeColor=#9673a6;fontColor=#000000;" parent="1" vertex="1">
                    <mxGeometry x="-28" y="827" width="110" height="40" as="geometry"/>
                </mxCell>
                <mxCell id="-xcbg-qOsnuhI51LGYwy-3" value="" style="rounded=0;whiteSpace=wrap;html=1;labelBackgroundColor=#009999;labelBorderColor=#000000;strokeColor=none;fillColor=#67AB9F;fontColor=#000000;" parent="1" vertex="1">
                    <mxGeometry x="40" y="40" width="760" height="60" as="geometry"/>
                </mxCell>
                <mxCell id="-xcbg-qOsnuhI51LGYwy-4" value="&lt;font style=&quot;font-size: 21px&quot;&gt;Step 1: Define the purpose of the DataBase&lt;/font&gt;" style="text;html=1;strokeColor=none;fillColor=none;align=center;verticalAlign=middle;whiteSpace=wrap;rounded=0;labelBackgroundColor=none;fontColor=#000000;" parent="1" vertex="1">
                    <mxGeometry x="60" y="60" width="720" height="20" as="geometry"/>
                </mxCell>
                <mxCell id="-xcbg-qOsnuhI51LGYwy-6" value="&lt;span&gt;Set of&lt;br&gt;Products&lt;/span&gt;" style="ellipse;shape=cloud;whiteSpace=wrap;html=1;labelBackgroundColor=none;fillColor=#1ba1e2;strokeColor=#006EAF;fontColor=#000000;" parent="1" vertex="1">
                    <mxGeometry x="260" y="140" width="120" height="80" as="geometry"/>
                </mxCell>
                <mxCell id="-xcbg-qOsnuhI51LGYwy-8" value="Au" style="shape=actor;whiteSpace=wrap;html=1;labelBackgroundColor=none;fillColor=none;fontColor=#000000;" parent="1" vertex="1">
                    <mxGeometry x="320" y="230" width="100" height="120" as="geometry"/>
                </mxCell>
                <mxCell id="-xcbg-qOsnuhI51LGYwy-9" value="" style="ellipse;shape=cloud;whiteSpace=wrap;html=1;labelBackgroundColor=none;fillColor=none;fontColor=#000000;" parent="1" vertex="1">
                    <mxGeometry x="380" y="140" width="120" height="80" as="geometry"/>
                </mxCell>
                <mxCell id="-xcbg-qOsnuhI51LGYwy-10" value="" style="ellipse;shape=cloud;whiteSpace=wrap;html=1;labelBackgroundColor=none;fillColor=none;fontColor=#000000;" parent="1" vertex="1">
                    <mxGeometry x="150" y="190" width="120" height="80" as="geometry"/>
                </mxCell>
                <mxCell id="-xcbg-qOsnuhI51LGYwy-12" value="Auction House employee" style="text;html=1;strokeColor=none;fillColor=none;align=center;verticalAlign=middle;whiteSpace=wrap;rounded=0;labelBackgroundColor=none;fontColor=#000000;" parent="1" vertex="1">
                    <mxGeometry x="340" y="300" width="60" height="40" as="geometry"/>
                </mxCell>
                <mxCell id="-xcbg-qOsnuhI51LGYwy-13" value="Products" style="text;html=1;strokeColor=none;fillColor=none;align=center;verticalAlign=middle;whiteSpace=wrap;rounded=0;labelBackgroundColor=none;fontColor=#000000;" parent="1" vertex="1">
                    <mxGeometry x="180" y="210" width="60" height="40" as="geometry"/>
                </mxCell>
                <mxCell id="-xcbg-qOsnuhI51LGYwy-15" value="Customers" style="text;html=1;strokeColor=none;fillColor=none;align=center;verticalAlign=middle;whiteSpace=wrap;rounded=0;labelBackgroundColor=none;fontColor=#000000;" parent="1" vertex="1">
                    <mxGeometry x="410" y="160" width="60" height="40" as="geometry"/>
                </mxCell>
                <mxCell id="-xcbg-qOsnuhI51LGYwy-17" value="" style="ellipse;shape=cloud;whiteSpace=wrap;html=1;labelBackgroundColor=none;fillColor=none;fontColor=#000000;" parent="1" vertex="1">
                    <mxGeometry x="140" y="110" width="120" height="80" as="geometry"/>
                </mxCell>
                <mxCell id="-xcbg-qOsnuhI51LGYwy-18" value="Transactions" style="text;html=1;strokeColor=none;fillColor=none;align=center;verticalAlign=middle;whiteSpace=wrap;rounded=0;labelBackgroundColor=none;fontColor=#000000;" parent="1" vertex="1">
                    <mxGeometry x="170" y="130" width="60" height="40" as="geometry"/>
                </mxCell>
                <mxCell id="-xcbg-qOsnuhI51LGYwy-19" value="" style="ellipse;shape=cloud;whiteSpace=wrap;html=1;labelBackgroundColor=none;fillColor=none;fontColor=#000000;" parent="1" vertex="1">
                    <mxGeometry x="470" y="200" width="120" height="80" as="geometry"/>
                </mxCell>
                <mxCell id="-xcbg-qOsnuhI51LGYwy-20" value="Suppliers" style="text;html=1;strokeColor=none;fillColor=none;align=center;verticalAlign=middle;whiteSpace=wrap;rounded=0;labelBackgroundColor=none;fontColor=#000000;" parent="1" vertex="1">
                    <mxGeometry x="500" y="220" width="60" height="40" as="geometry"/>
                </mxCell>
                <mxCell id="-xcbg-qOsnuhI51LGYwy-21" value="" style="ellipse;shape=cloud;whiteSpace=wrap;html=1;labelBackgroundColor=none;fillColor=none;fontColor=#000000;" parent="1" vertex="1">
                    <mxGeometry x="520" y="110" width="120" height="80" as="geometry"/>
                </mxCell>
                <mxCell id="-xcbg-qOsnuhI51LGYwy-22" value="Auctions" style="text;html=1;strokeColor=none;fillColor=none;align=center;verticalAlign=middle;whiteSpace=wrap;rounded=0;labelBackgroundColor=none;fontColor=#000000;" parent="1" vertex="1">
                    <mxGeometry x="550" y="130" width="60" height="40" as="geometry"/>
                </mxCell>
                <mxCell id="-xcbg-qOsnuhI51LGYwy-25" value="" style="rounded=0;whiteSpace=wrap;html=1;labelBackgroundColor=#009999;labelBorderColor=#000000;strokeColor=none;fillColor=#67AB9F;fontColor=#000000;" parent="1" vertex="1">
                    <mxGeometry x="40" y="400" width="760" height="60" as="geometry"/>
                </mxCell>
                <mxCell id="-xcbg-qOsnuhI51LGYwy-26" value="&lt;font style=&quot;font-size: 21px&quot;&gt;Step 2: Entity-Relationship-Model&lt;/font&gt;" style="text;html=1;strokeColor=none;fillColor=none;align=center;verticalAlign=middle;whiteSpace=wrap;rounded=0;labelBackgroundColor=none;fontColor=#000000;" parent="1" vertex="1">
                    <mxGeometry x="60" y="420" width="720" height="20" as="geometry"/>
                </mxCell>
                <mxCell id="-xcbg-qOsnuhI51LGYwy-27" value="Set of Products" style="rounded=0;whiteSpace=wrap;html=1;labelBackgroundColor=none;fillColor=#dae8fc;strokeColor=#6c8ebf;fontColor=#000000;" parent="1" vertex="1">
                    <mxGeometry x="40" y="966" width="120" height="120" as="geometry"/>
                </mxCell>
                <mxCell id="-xcbg-qOsnuhI51LGYwy-28" value="Product" style="rounded=0;whiteSpace=wrap;html=1;labelBackgroundColor=none;fillColor=#dae8fc;strokeColor=#6c8ebf;fontColor=#000000;" parent="1" vertex="1">
                    <mxGeometry x="240" y="796" width="120" height="60" as="geometry"/>
                </mxCell>
                <mxCell id="-xcbg-qOsnuhI51LGYwy-32" value="" style="fontSize=12;html=1;endArrow=ERoneToMany;startArrow=none;entryX=0;entryY=1;entryDx=0;entryDy=0;startFill=0;fontColor=#000000;" parent="1" target="-xcbg-qOsnuhI51LGYwy-29" edge="1">
                    <mxGeometry width="100" height="100" relative="1" as="geometry">
                        <mxPoint x="100" y="966" as="sourcePoint"/>
                        <mxPoint x="150" y="916" as="targetPoint"/>
                    </mxGeometry>
                </mxCell>
                <mxCell id="-xcbg-qOsnuhI51LGYwy-35" value="" style="fontSize=12;html=1;endArrow=ERmandOne;fontColor=#000000;" parent="1" source="-xcbg-qOsnuhI51LGYwy-29" edge="1">
                    <mxGeometry width="100" height="100" relative="1" as="geometry">
                        <mxPoint x="184" y="877" as="sourcePoint"/>
                        <mxPoint x="240" y="826" as="targetPoint"/>
                    </mxGeometry>
                </mxCell>
                <mxCell id="-xcbg-qOsnuhI51LGYwy-36" value="ProductID" style="ellipse;whiteSpace=wrap;html=1;align=center;fontStyle=0;labelBackgroundColor=none;fillColor=#d5e8d4;strokeColor=#82b366;fontColor=#000000;" parent="1" vertex="1">
                    <mxGeometry x="210" y="755" width="100" height="40" as="geometry"/>
                </mxCell>
                <mxCell id="-xcbg-qOsnuhI51LGYwy-39" value="EAN" style="ellipse;whiteSpace=wrap;html=1;align=center;fontStyle=0;labelBackgroundColor=none;fontColor=#000000;fillColor=#FFFFFF;" parent="1" vertex="1">
                    <mxGeometry x="310" y="751" width="100" height="40" as="geometry"/>
                </mxCell>
                <mxCell id="-xcbg-qOsnuhI51LGYwy-41" value="ProductDescr" style="ellipse;whiteSpace=wrap;html=1;align=center;fontStyle=0;labelBackgroundColor=none;fontColor=#000000;fillColor=#FFFFFF;" parent="1" vertex="1">
                    <mxGeometry x="310" y="711" width="100" height="40" as="geometry"/>
                </mxCell>
                <mxCell id="-xcbg-qOsnuhI51LGYwy-42" value="ProductPhoto" style="ellipse;whiteSpace=wrap;html=1;align=center;fontStyle=0;labelBackgroundColor=none;fontColor=#000000;fillColor=#FFFFFF;" parent="1" vertex="1">
                    <mxGeometry x="310" y="671" width="100" height="40" as="geometry"/>
                </mxCell>
                <mxCell id="-xcbg-qOsnuhI51LGYwy-43" value="fk_product_id" style="ellipse;whiteSpace=wrap;html=1;align=center;fontStyle=0;labelBackgroundColor=none;fillColor=#e1d5e7;strokeColor=#9673a6;fontColor=#000000;" parent="1" vertex="1">
                    <mxGeometry x="80" y="816" width="100" height="40" as="geometry"/>
                </mxCell>
                <mxCell id="-xcbg-qOsnuhI51LGYwy-44" value="RemainingTime" style="ellipse;whiteSpace=wrap;html=1;align=center;fontStyle=0;labelBackgroundColor=none;fontColor=#000000;fillColor=#FFFFFF;" parent="1" vertex="1">
                    <mxGeometry x="-170" y="1046" width="100" height="40" as="geometry"/>
                </mxCell>
                <mxCell id="-xcbg-qOsnuhI51LGYwy-45" value="StartPrice" style="ellipse;whiteSpace=wrap;html=1;align=center;fontStyle=0;labelBackgroundColor=none;fontColor=#000000;fillColor=#FFFFFF;" parent="1" vertex="1">
                    <mxGeometry x="-70" y="1046" width="100" height="40" as="geometry"/>
                </mxCell>
                <mxCell id="-xcbg-qOsnuhI51LGYwy-46" value="HighhestBid" style="ellipse;whiteSpace=wrap;html=1;align=center;fontStyle=0;labelBackgroundColor=none;fillColor=none;fontColor=#000000;" parent="1" vertex="1">
                    <mxGeometry x="-170" y="1006" width="100" height="40" as="geometry"/>
                </mxCell>
                <mxCell id="-xcbg-qOsnuhI51LGYwy-47" value="CatalogNumber" style="ellipse;whiteSpace=wrap;html=1;align=center;fontStyle=0;labelBackgroundColor=none;fillColor=none;fontColor=#000000;" parent="1" vertex="1">
                    <mxGeometry x="-70" y="1006" width="100" height="40" as="geometry"/>
                </mxCell>
                <mxCell id="-xcbg-qOsnuhI51LGYwy-48" value="SetProductsId" style="ellipse;whiteSpace=wrap;html=1;align=center;fontStyle=0;labelBackgroundColor=none;fillColor=#d5e8d4;strokeColor=#82b366;fontColor=#000000;" parent="1" vertex="1">
                    <mxGeometry x="-60" y="966" width="100" height="40" as="geometry"/>
                </mxCell>
                <mxCell id="-xcbg-qOsnuhI51LGYwy-49" value="bids" style="rhombus;whiteSpace=wrap;html=1;labelBackgroundColor=none;fillColor=#fff2cc;strokeColor=#d6b656;fontColor=#000000;" parent="1" vertex="1">
                    <mxGeometry x="100" y="1141" width="130" height="55" as="geometry"/>
                </mxCell>
                <mxCell id="-xcbg-qOsnuhI51LGYwy-50" value="Customers" style="rounded=0;whiteSpace=wrap;html=1;labelBackgroundColor=none;fillColor=#dae8fc;strokeColor=#6c8ebf;fontColor=#000000;" parent="1" vertex="1">
                    <mxGeometry x="260" y="1196" width="120" height="60" as="geometry"/>
                </mxCell>
                <mxCell id="-xcbg-qOsnuhI51LGYwy-51" value="" style="fontSize=12;html=1;endArrow=ERzeroToMany;endFill=1;entryX=0;entryY=0.5;entryDx=0;entryDy=0;fontColor=#000000;" parent="1" source="-xcbg-qOsnuhI51LGYwy-49" target="-xcbg-qOsnuhI51LGYwy-50" edge="1">
                    <mxGeometry width="100" height="100" relative="1" as="geometry">
                        <mxPoint x="310" y="1226" as="sourcePoint"/>
                        <mxPoint x="410" y="1126" as="targetPoint"/>
                    </mxGeometry>
                </mxCell>
                <mxCell id="-xcbg-qOsnuhI51LGYwy-52" value="" style="fontSize=12;html=1;endArrow=ERoneToMany;endFill=0;entryX=0.5;entryY=1;entryDx=0;entryDy=0;exitX=0.328;exitY=0.142;exitDx=0;exitDy=0;exitPerimeter=0;fontColor=#000000;" parent="1" source="-xcbg-qOsnuhI51LGYwy-49" target="-xcbg-qOsnuhI51LGYwy-27" edge="1">
                    <mxGeometry width="100" height="100" relative="1" as="geometry">
                        <mxPoint x="201.7421259842522" y="1194.686023622047" as="sourcePoint"/>
                        <mxPoint x="270.0000000000002" y="1236" as="targetPoint"/>
                    </mxGeometry>
                </mxCell>
                <mxCell id="-xcbg-qOsnuhI51LGYwy-53" value="&lt;font&gt;CustomerID&lt;/font&gt;" style="ellipse;whiteSpace=wrap;html=1;align=center;labelBackgroundColor=none;fillColor=#d5e8d4;strokeColor=#82b366;fontColor=#000000;" parent="1" vertex="1">
                    <mxGeometry x="230" y="1256" width="100" height="40" as="geometry"/>
                </mxCell>
                <mxCell id="-xcbg-qOsnuhI51LGYwy-54" value="&lt;font&gt;UserPW&lt;/font&gt;" style="ellipse;whiteSpace=wrap;html=1;align=center;labelBackgroundColor=none;fillColor=none;fontColor=#000000;" parent="1" vertex="1">
                    <mxGeometry x="330" y="1256" width="100" height="40" as="geometry"/>
                </mxCell>
                <mxCell id="-xcbg-qOsnuhI51LGYwy-55" value="&lt;font&gt;UserName&lt;/font&gt;" style="ellipse;whiteSpace=wrap;html=1;align=center;labelBackgroundColor=none;fillColor=none;fontColor=#000000;" parent="1" vertex="1">
                    <mxGeometry x="230" y="1296" width="100" height="40" as="geometry"/>
                </mxCell>
                <mxCell id="-xcbg-qOsnuhI51LGYwy-56" value="&lt;font&gt;Email&lt;/font&gt;" style="ellipse;whiteSpace=wrap;html=1;align=center;labelBackgroundColor=none;fontColor=#000000;fillColor=#FFFFFF;" parent="1" vertex="1">
                    <mxGeometry x="330" y="1296" width="100" height="40" as="geometry"/>
                </mxCell>
                <mxCell id="-xcbg-qOsnuhI51LGYwy-57" value="&lt;font&gt;FirstName&lt;/font&gt;" style="ellipse;whiteSpace=wrap;html=1;align=center;labelBackgroundColor=none;fillColor=none;fontColor=#000000;" parent="1" vertex="1">
                    <mxGeometry x="230" y="1336" width="100" height="40" as="geometry"/>
                </mxCell>
                <mxCell id="-xcbg-qOsnuhI51LGYwy-58" value="&lt;font&gt;LastName&lt;/font&gt;" style="ellipse;whiteSpace=wrap;html=1;align=center;labelBackgroundColor=none;fillColor=none;fontColor=#000000;" parent="1" vertex="1">
                    <mxGeometry x="330" y="1336" width="100" height="40" as="geometry"/>
                </mxCell>
                <mxCell id="-xcbg-qOsnuhI51LGYwy-29" value="contains" style="rhombus;whiteSpace=wrap;html=1;labelBackgroundColor=none;fillColor=#fff2cc;strokeColor=#d6b656;fontColor=#000000;" parent="1" vertex="1">
                    <mxGeometry x="110" y="876" width="130" height="55" as="geometry"/>
                </mxCell>
                <mxCell id="-xcbg-qOsnuhI51LGYwy-61" value="Amount" style="ellipse;whiteSpace=wrap;html=1;align=center;fontStyle=0;labelBackgroundColor=none;fontColor=#000000;" parent="1" vertex="1">
                    <mxGeometry x="-150" y="1156" width="100" height="40" as="geometry"/>
                </mxCell>
                <mxCell id="-xcbg-qOsnuhI51LGYwy-62" value="Date" style="ellipse;whiteSpace=wrap;html=1;align=center;fontStyle=0;labelBackgroundColor=none;fontColor=#000000;" parent="1" vertex="1">
                    <mxGeometry x="-150" y="1196" width="100" height="40" as="geometry"/>
                </mxCell>
                <mxCell id="-xcbg-qOsnuhI51LGYwy-63" value="fk_customer_id" style="ellipse;whiteSpace=wrap;html=1;align=center;fontStyle=0;labelBackgroundColor=none;fillColor=#e1d5e7;strokeColor=#9673a6;fontColor=#000000;" parent="1" vertex="1">
                    <mxGeometry x="-60" y="1149.5" width="100" height="40" as="geometry"/>
                </mxCell>
                <mxCell id="-xcbg-qOsnuhI51LGYwy-65" value="fk_set_products_id" style="ellipse;whiteSpace=wrap;html=1;align=center;fontStyle=0;labelBackgroundColor=none;fillColor=#e1d5e7;strokeColor=#9673a6;fontColor=#000000;" parent="1" vertex="1">
                    <mxGeometry x="-70" y="1189.5" width="110" height="40" as="geometry"/>
                </mxCell>
                <mxCell id="-xcbg-qOsnuhI51LGYwy-66" value="" style="verticalLabelPosition=bottom;verticalAlign=top;html=1;shape=mxgraph.basic.tick;labelBackgroundColor=none;fillColor=#60a917;strokeColor=#2D7600;fontColor=#000000;" parent="1" vertex="1">
                    <mxGeometry x="160" y="190" width="40" height="40" as="geometry"/>
                </mxCell>
                <mxCell id="-xcbg-qOsnuhI51LGYwy-67" value="" style="verticalLabelPosition=bottom;verticalAlign=top;html=1;shape=mxgraph.basic.tick;labelBackgroundColor=none;fillColor=#60a917;strokeColor=#2D7600;fontColor=#000000;" parent="1" vertex="1">
                    <mxGeometry x="340" y="130" width="40" height="40" as="geometry"/>
                </mxCell>
                <mxCell id="-xcbg-qOsnuhI51LGYwy-68" value="" style="verticalLabelPosition=bottom;verticalAlign=top;html=1;shape=mxgraph.basic.tick;labelBackgroundColor=none;fillColor=#60a917;strokeColor=#2D7600;fontColor=#000000;" parent="1" vertex="1">
                    <mxGeometry x="440" y="130" width="40" height="40" as="geometry"/>
                </mxCell>
                <mxCell id="-xcbg-qOsnuhI51LGYwy-69" value="Supplier" style="rounded=0;whiteSpace=wrap;html=1;labelBackgroundColor=none;fillColor=#dae8fc;strokeColor=#6c8ebf;fontColor=#000000;" parent="1" vertex="1">
                    <mxGeometry x="630" y="795" width="120" height="60" as="geometry"/>
                </mxCell>
                <mxCell id="-xcbg-qOsnuhI51LGYwy-70" value="supplies" style="rhombus;whiteSpace=wrap;html=1;labelBackgroundColor=none;fillColor=#fff2cc;strokeColor=#d6b656;fontColor=#000000;" parent="1" vertex="1">
                    <mxGeometry x="440" y="798.5" width="130" height="55" as="geometry"/>
                </mxCell>
                <mxCell id="-xcbg-qOsnuhI51LGYwy-71" value="" style="fontSize=12;html=1;endArrow=ERoneToMany;startArrow=none;exitX=1;exitY=0.5;exitDx=0;exitDy=0;entryX=0;entryY=0.5;entryDx=0;entryDy=0;startFill=0;fontColor=#000000;" parent="1" source="-xcbg-qOsnuhI51LGYwy-70" target="-xcbg-qOsnuhI51LGYwy-69" edge="1">
                    <mxGeometry width="100" height="100" relative="1" as="geometry">
                        <mxPoint x="530" y="916" as="sourcePoint"/>
                        <mxPoint x="630" y="816" as="targetPoint"/>
                    </mxGeometry>
                </mxCell>
                <mxCell id="-xcbg-qOsnuhI51LGYwy-72" value="" style="fontSize=12;html=1;endArrow=none;startArrow=ERoneToMany;exitX=1;exitY=0.5;exitDx=0;exitDy=0;entryX=0;entryY=0.5;entryDx=0;entryDy=0;endFill=0;fontColor=#000000;" parent="1" source="-xcbg-qOsnuhI51LGYwy-28" target="-xcbg-qOsnuhI51LGYwy-70" edge="1">
                    <mxGeometry width="100" height="100" relative="1" as="geometry">
                        <mxPoint x="370" y="825.5" as="sourcePoint"/>
                        <mxPoint x="430" y="824.5" as="targetPoint"/>
                    </mxGeometry>
                </mxCell>
                <mxCell id="-xcbg-qOsnuhI51LGYwy-75" value="SupplierID" style="ellipse;whiteSpace=wrap;html=1;align=center;fontStyle=0;labelBackgroundColor=none;fillColor=#d5e8d4;strokeColor=#82b366;fontColor=#000000;" parent="1" vertex="1">
                    <mxGeometry x="620" y="754" width="100" height="40" as="geometry"/>
                </mxCell>
                <mxCell id="-xcbg-qOsnuhI51LGYwy-76" value="SupplierName" style="ellipse;whiteSpace=wrap;html=1;align=center;fontStyle=0;labelBackgroundColor=none;fillColor=none;fontColor=#000000;" parent="1" vertex="1">
                    <mxGeometry x="720" y="754" width="100" height="40" as="geometry"/>
                </mxCell>
                <mxCell id="-xcbg-qOsnuhI51LGYwy-77" value="Address" style="ellipse;whiteSpace=wrap;html=1;align=center;fontStyle=0;labelBackgroundColor=none;fontColor=#000000;fillColor=#FFFFFF;" parent="1" vertex="1">
                    <mxGeometry x="620" y="714" width="100" height="40" as="geometry"/>
                </mxCell>
                <mxCell id="-xcbg-qOsnuhI51LGYwy-78" value="Contact Details" style="ellipse;whiteSpace=wrap;html=1;align=center;fontStyle=0;labelBackgroundColor=none;fontColor=#000000;fillColor=#FFFFFF;" parent="1" vertex="1">
                    <mxGeometry x="720" y="714" width="100" height="40" as="geometry"/>
                </mxCell>
                <mxCell id="-xcbg-qOsnuhI51LGYwy-79" value="fk_product_id" style="ellipse;whiteSpace=wrap;html=1;align=center;fontStyle=0;labelBackgroundColor=none;fillColor=#e1d5e7;strokeColor=#9673a6;fontColor=#000000;" parent="1" vertex="1">
                    <mxGeometry x="455" y="736" width="100" height="40" as="geometry"/>
                </mxCell>
                <mxCell id="-xcbg-qOsnuhI51LGYwy-80" value="fk_supplier_id" style="ellipse;whiteSpace=wrap;html=1;align=center;fontStyle=0;labelBackgroundColor=none;fillColor=#e1d5e7;strokeColor=#9673a6;fontColor=#000000;" parent="1" vertex="1">
                    <mxGeometry x="455" y="700" width="100" height="40" as="geometry"/>
                </mxCell>
                <mxCell id="-xcbg-qOsnuhI51LGYwy-81" value="delivery_date" style="ellipse;whiteSpace=wrap;html=1;align=center;fontStyle=0;labelBackgroundColor=none;fontColor=#000000;fillColor=#FFFFFF;" parent="1" vertex="1">
                    <mxGeometry x="455" y="660" width="100" height="40" as="geometry"/>
                </mxCell>
                <mxCell id="-xcbg-qOsnuhI51LGYwy-82" value="delivery_status" style="ellipse;whiteSpace=wrap;html=1;align=center;fontStyle=0;labelBackgroundColor=none;fontColor=#000000;fillColor=#FFFFFF;" parent="1" vertex="1">
                    <mxGeometry x="455" y="620" width="100" height="40" as="geometry"/>
                </mxCell>
                <mxCell id="-xcbg-qOsnuhI51LGYwy-84" value="" style="verticalLabelPosition=bottom;verticalAlign=top;html=1;shape=mxgraph.basic.tick;labelBackgroundColor=none;fillColor=#60a917;strokeColor=#2D7600;fontColor=#000000;" parent="1" vertex="1">
                    <mxGeometry x="555" y="200" width="40" height="40" as="geometry"/>
                </mxCell>
                <mxCell id="-xcbg-qOsnuhI51LGYwy-85" value="Auction" style="rounded=0;whiteSpace=wrap;html=1;labelBackgroundColor=none;fillColor=#dae8fc;strokeColor=#6c8ebf;fontColor=#000000;" parent="1" vertex="1">
                    <mxGeometry x="440" y="996" width="120" height="60" as="geometry"/>
                </mxCell>
                <mxCell id="-xcbg-qOsnuhI51LGYwy-86" value="is_offered_in" style="rhombus;whiteSpace=wrap;html=1;labelBackgroundColor=none;fillColor=#fff2cc;strokeColor=#d6b656;fontColor=#000000;" parent="1" vertex="1">
                    <mxGeometry x="240" y="998.5" width="130" height="55" as="geometry"/>
                </mxCell>
                <mxCell id="-xcbg-qOsnuhI51LGYwy-87" value="takes_part" style="rhombus;whiteSpace=wrap;html=1;labelBackgroundColor=none;fillColor=#fff2cc;strokeColor=#d6b656;fontColor=#000000;" parent="1" vertex="1">
                    <mxGeometry x="435" y="1126" width="130" height="55" as="geometry"/>
                </mxCell>
                <mxCell id="-xcbg-qOsnuhI51LGYwy-88" value="" style="fontSize=12;html=1;endArrow=ERzeroToMany;endFill=1;entryX=1;entryY=0.5;entryDx=0;entryDy=0;exitX=0;exitY=1;exitDx=0;exitDy=0;fontColor=#000000;" parent="1" source="-xcbg-qOsnuhI51LGYwy-87" target="-xcbg-qOsnuhI51LGYwy-50" edge="1">
                    <mxGeometry width="100" height="100" relative="1" as="geometry">
                        <mxPoint x="425.8721259842522" y="1165.996023622047" as="sourcePoint"/>
                        <mxPoint x="494.1300000000002" y="1207.31" as="targetPoint"/>
                    </mxGeometry>
                </mxCell>
                <mxCell id="-xcbg-qOsnuhI51LGYwy-90" value="" style="fontSize=12;html=1;endArrow=ERoneToMany;endFill=0;entryX=0.5;entryY=1;entryDx=0;entryDy=0;exitX=0.5;exitY=0;exitDx=0;exitDy=0;fontColor=#000000;" parent="1" source="-xcbg-qOsnuhI51LGYwy-87" target="-xcbg-qOsnuhI51LGYwy-85" edge="1">
                    <mxGeometry width="100" height="100" relative="1" as="geometry">
                        <mxPoint x="152.64000000000033" y="1158.81" as="sourcePoint"/>
                        <mxPoint x="110.00000000000023" y="1096" as="targetPoint"/>
                        <Array as="points"/>
                    </mxGeometry>
                </mxCell>
                <mxCell id="-xcbg-qOsnuhI51LGYwy-91" value="terminates_in" style="rhombus;whiteSpace=wrap;html=1;labelBackgroundColor=none;fillColor=#fff2cc;strokeColor=#d6b656;fontColor=#000000;" parent="1" vertex="1">
                    <mxGeometry x="663" y="998.5" width="130" height="55" as="geometry"/>
                </mxCell>
                <mxCell id="-xcbg-qOsnuhI51LGYwy-92" value="Transaction" style="rounded=0;whiteSpace=wrap;html=1;labelBackgroundColor=none;fillColor=#dae8fc;strokeColor=#6c8ebf;fontColor=#000000;" parent="1" vertex="1">
                    <mxGeometry x="890" y="996" width="120" height="60" as="geometry"/>
                </mxCell>
                <mxCell id="-xcbg-qOsnuhI51LGYwy-95" value="Time" style="ellipse;whiteSpace=wrap;html=1;align=center;fontStyle=0;labelBackgroundColor=none;fontColor=#000000;" parent="1" vertex="1">
                    <mxGeometry x="-150" y="1235" width="100" height="42" as="geometry"/>
                </mxCell>
                <mxCell id="-xcbg-qOsnuhI51LGYwy-96" value="" style="fontSize=12;html=1;endArrow=ERoneToMany;startArrow=ERmandOne;entryX=0;entryY=0.5;entryDx=0;entryDy=0;fontColor=#000000;" parent="1" target="-xcbg-qOsnuhI51LGYwy-86" edge="1">
                    <mxGeometry width="100" height="100" relative="1" as="geometry">
                        <mxPoint x="160" y="1026" as="sourcePoint"/>
                        <mxPoint x="260" y="926" as="targetPoint"/>
                    </mxGeometry>
                </mxCell>
                <mxCell id="-xcbg-qOsnuhI51LGYwy-97" value="" style="fontSize=12;html=1;endArrow=ERone;endFill=1;entryX=0;entryY=0.5;entryDx=0;entryDy=0;fontColor=#000000;" parent="1" target="-xcbg-qOsnuhI51LGYwy-85" edge="1">
                    <mxGeometry width="100" height="100" relative="1" as="geometry">
                        <mxPoint x="370" y="1026" as="sourcePoint"/>
                        <mxPoint x="470" y="926" as="targetPoint"/>
                    </mxGeometry>
                </mxCell>
                <mxCell id="-xcbg-qOsnuhI51LGYwy-99" value="fk_customer_id" style="ellipse;whiteSpace=wrap;html=1;align=center;fontStyle=0;labelBackgroundColor=none;fillColor=#e1d5e7;strokeColor=#9673a6;fontColor=#000000;" parent="1" vertex="1">
                    <mxGeometry x="640" y="1156" width="100" height="40" as="geometry"/>
                </mxCell>
                <mxCell id="-xcbg-qOsnuhI51LGYwy-100" value="fk_auction_id" style="ellipse;whiteSpace=wrap;html=1;align=center;fontStyle=0;labelBackgroundColor=none;fillColor=#e1d5e7;strokeColor=#9673a6;fontColor=#000000;" parent="1" vertex="1">
                    <mxGeometry x="640" y="1116" width="100" height="40" as="geometry"/>
                </mxCell>
                <mxCell id="-xcbg-qOsnuhI51LGYwy-104" value="fk_set_products_id" style="ellipse;whiteSpace=wrap;html=1;align=center;fontStyle=0;labelBackgroundColor=none;fillColor=#e1d5e7;strokeColor=#9673a6;fontColor=#000000;" parent="1" vertex="1">
                    <mxGeometry x="300" y="925" width="110" height="40" as="geometry"/>
                </mxCell>
                <mxCell id="-xcbg-qOsnuhI51LGYwy-105" value="fk_auction_id" style="ellipse;whiteSpace=wrap;html=1;align=center;fontStyle=0;labelBackgroundColor=none;fillColor=#e1d5e7;strokeColor=#9673a6;fontColor=#000000;" parent="1" vertex="1">
                    <mxGeometry x="191" y="931" width="110" height="40" as="geometry"/>
                </mxCell>
                <mxCell id="-xcbg-qOsnuhI51LGYwy-107" value="fk_bids_id" style="ellipse;whiteSpace=wrap;html=1;align=center;fontStyle=0;labelBackgroundColor=none;fillColor=#e1d5e7;strokeColor=#9673a6;fontColor=#000000;" parent="1" vertex="1">
                    <mxGeometry x="470" y="920" width="110" height="40" as="geometry"/>
                </mxCell>
                <mxCell id="-xcbg-qOsnuhI51LGYwy-108" value="&lt;font&gt;contains_ID&lt;/font&gt;" style="ellipse;whiteSpace=wrap;html=1;align=center;labelBackgroundColor=none;fillColor=#d5e8d4;strokeColor=#82b366;fontColor=#000000;" parent="1" vertex="1">
                    <mxGeometry x="53" y="856" width="100" height="40" as="geometry"/>
                </mxCell>
                <mxCell id="-xcbg-qOsnuhI51LGYwy-109" value="&lt;font&gt;supplies_ID&lt;/font&gt;" style="ellipse;whiteSpace=wrap;html=1;align=center;labelBackgroundColor=none;fillColor=#d5e8d4;strokeColor=#82b366;fontColor=#000000;" parent="1" vertex="1">
                    <mxGeometry x="455" y="766" width="100" height="40" as="geometry"/>
                </mxCell>
                <mxCell id="-xcbg-qOsnuhI51LGYwy-110" value="&lt;font&gt;is_offered_in_ID&lt;/font&gt;" style="ellipse;whiteSpace=wrap;html=1;align=center;labelBackgroundColor=none;fillColor=#d5e8d4;strokeColor=#82b366;fontColor=#000000;" parent="1" vertex="1">
                    <mxGeometry x="255" y="958.5" width="100" height="40" as="geometry"/>
                </mxCell>
                <mxCell id="-xcbg-qOsnuhI51LGYwy-113" value="&lt;font&gt;is_offered_in_ID&lt;/font&gt;" style="ellipse;whiteSpace=wrap;html=1;align=center;labelBackgroundColor=none;fillColor=#d5e8d4;strokeColor=#82b366;fontColor=#000000;" parent="1" vertex="1">
                    <mxGeometry x="560" y="1133.5" width="100" height="40" as="geometry"/>
                </mxCell>
                <mxCell id="-xcbg-qOsnuhI51LGYwy-114" value="&lt;font&gt;bids_ID&lt;/font&gt;" style="ellipse;whiteSpace=wrap;html=1;align=center;labelBackgroundColor=none;fillColor=#d5e8d4;strokeColor=#82b366;fontColor=#000000;" parent="1" vertex="1">
                    <mxGeometry x="30" y="1169.5" width="100" height="40" as="geometry"/>
                </mxCell>
                <mxCell id="-xcbg-qOsnuhI51LGYwy-98" value="&lt;font&gt;AuctionID&lt;/font&gt;" style="ellipse;whiteSpace=wrap;html=1;align=center;labelBackgroundColor=none;fillColor=#d5e8d4;strokeColor=#82b366;fontColor=#000000;" parent="1" vertex="1">
                    <mxGeometry x="440" y="956" width="100" height="40" as="geometry"/>
                </mxCell>
                <mxCell id="-xcbg-qOsnuhI51LGYwy-117" value="" style="fontSize=12;html=1;endArrow=ERone;endFill=1;entryX=0;entryY=0.5;entryDx=0;entryDy=0;exitX=1;exitY=0.5;exitDx=0;exitDy=0;fontColor=#000000;" parent="1" source="-xcbg-qOsnuhI51LGYwy-85" target="-xcbg-qOsnuhI51LGYwy-91" edge="1">
                    <mxGeometry width="100" height="100" relative="1" as="geometry">
                        <mxPoint x="400" y="1106" as="sourcePoint"/>
                        <mxPoint x="500" y="1006" as="targetPoint"/>
                    </mxGeometry>
                </mxCell>
                <mxCell id="-xcbg-qOsnuhI51LGYwy-119" value="" style="fontSize=12;html=1;endArrow=ERone;endFill=1;entryX=0;entryY=0.5;entryDx=0;entryDy=0;exitX=1;exitY=0.5;exitDx=0;exitDy=0;fontColor=#000000;" parent="1" edge="1">
                    <mxGeometry width="100" height="100" relative="1" as="geometry">
                        <mxPoint x="790" y="1025.4099999999999" as="sourcePoint"/>
                        <mxPoint x="890" y="1025.4099999999999" as="targetPoint"/>
                    </mxGeometry>
                </mxCell>
                <mxCell id="-xcbg-qOsnuhI51LGYwy-120" value="fk_customer_id" style="ellipse;whiteSpace=wrap;html=1;align=center;fontStyle=0;labelBackgroundColor=none;fillColor=#e1d5e7;strokeColor=#9673a6;fontColor=#000000;" parent="1" vertex="1">
                    <mxGeometry x="650" y="926" width="100" height="40" as="geometry"/>
                </mxCell>
                <mxCell id="-xcbg-qOsnuhI51LGYwy-121" value="&lt;font&gt;terminate_in_ID&lt;/font&gt;" style="ellipse;whiteSpace=wrap;html=1;align=center;labelBackgroundColor=none;fillColor=#d5e8d4;strokeColor=#82b366;fontColor=#000000;" parent="1" vertex="1">
                    <mxGeometry x="678" y="960" width="100" height="40" as="geometry"/>
                </mxCell>
                <mxCell id="-xcbg-qOsnuhI51LGYwy-122" value="&lt;font&gt;TransactionID&lt;/font&gt;" style="ellipse;whiteSpace=wrap;html=1;align=center;labelBackgroundColor=none;fillColor=#d5e8d4;strokeColor=#82b366;fontColor=#000000;" parent="1" vertex="1">
                    <mxGeometry x="900" y="956" width="100" height="40" as="geometry"/>
                </mxCell>
                <mxCell id="-xcbg-qOsnuhI51LGYwy-123" value="TotalSum" style="ellipse;whiteSpace=wrap;html=1;align=center;fontStyle=0;labelBackgroundColor=none;fillColor=none;fontColor=#000000;" parent="1" vertex="1">
                    <mxGeometry x="900" y="915.5" width="100" height="40" as="geometry"/>
                </mxCell>
                <mxCell id="-xcbg-qOsnuhI51LGYwy-124" value="ShippmentDetails" style="ellipse;whiteSpace=wrap;html=1;align=center;fontStyle=0;labelBackgroundColor=none;fillColor=none;fontColor=#000000;" parent="1" vertex="1">
                    <mxGeometry x="895" y="869.5" width="110" height="46" as="geometry"/>
                </mxCell>
                <mxCell id="-xcbg-qOsnuhI51LGYwy-125" value="fk_auction_id" style="ellipse;whiteSpace=wrap;html=1;align=center;fontStyle=0;labelBackgroundColor=none;fillColor=#e1d5e7;strokeColor=#9673a6;fontColor=#000000;" parent="1" vertex="1">
                    <mxGeometry x="749" y="931" width="100" height="40" as="geometry"/>
                </mxCell>
                <mxCell id="-xcbg-qOsnuhI51LGYwy-40" value="ProductName" style="ellipse;whiteSpace=wrap;html=1;align=center;fontStyle=0;labelBackgroundColor=none;fontColor=#000000;fillColor=#FFFFFF;" parent="1" vertex="1">
                    <mxGeometry x="210" y="715" width="100" height="40" as="geometry"/>
                </mxCell>
                <mxCell id="-xcbg-qOsnuhI51LGYwy-140" value="" style="endArrow=none;dashed=1;html=1;dashPattern=1 3;strokeWidth=2;exitX=0.5;exitY=0;exitDx=0;exitDy=0;strokeColor=#FF0000;fontColor=#000000;" parent="1" source="-xcbg-qOsnuhI51LGYwy-124" edge="1">
                    <mxGeometry x="262" y="570" width="50" height="50" as="geometry">
                        <mxPoint x="340" y="880" as="sourcePoint"/>
                        <mxPoint x="310" y="570" as="targetPoint"/>
                        <Array as="points">
                            <mxPoint x="950" y="570"/>
                        </Array>
                    </mxGeometry>
                </mxCell>
                <mxCell id="-xcbg-qOsnuhI51LGYwy-143" value="&lt;font style=&quot;font-size: 14px&quot;&gt;add function later to update stock&lt;/font&gt;" style="rounded=1;whiteSpace=wrap;html=1;labelBackgroundColor=none;strokeColor=#A50040;fillColor=#D80073;fontSize=14;fontColor=#000000;" parent="1" vertex="1">
                    <mxGeometry x="558" y="530" width="120" height="60" as="geometry"/>
                </mxCell>
                <mxCell id="-xcbg-qOsnuhI51LGYwy-144" value="Quantity" style="ellipse;whiteSpace=wrap;html=1;align=center;fontStyle=0;labelBackgroundColor=none;fontColor=#000000;fillColor=#FFFFFF;" parent="1" vertex="1">
                    <mxGeometry x="210" y="673" width="100" height="40" as="geometry"/>
                </mxCell>
                <mxCell id="2" value="&lt;font&gt;UserPW&lt;/font&gt;" style="ellipse;whiteSpace=wrap;html=1;align=center;labelBackgroundColor=none;fillColor=none;fontColor=#000000;" vertex="1" parent="1">
                    <mxGeometry x="330" y="1256" width="100" height="40" as="geometry"/>
                </mxCell>
                <mxCell id="3" value="&lt;font&gt;LastName&lt;/font&gt;" style="ellipse;whiteSpace=wrap;html=1;align=center;labelBackgroundColor=none;fillColor=none;fontColor=#000000;" vertex="1" parent="1">
                    <mxGeometry x="330" y="1336" width="100" height="40" as="geometry"/>
                </mxCell>
                <mxCell id="4" value="&lt;font&gt;FirstName&lt;/font&gt;" style="ellipse;whiteSpace=wrap;html=1;align=center;labelBackgroundColor=none;fillColor=none;fontColor=#000000;" vertex="1" parent="1">
                    <mxGeometry x="230" y="1336" width="100" height="40" as="geometry"/>
                </mxCell>
                <mxCell id="5" value="&lt;font&gt;UserName&lt;/font&gt;" style="ellipse;whiteSpace=wrap;html=1;align=center;labelBackgroundColor=none;fillColor=none;fontColor=#000000;" vertex="1" parent="1">
                    <mxGeometry x="230" y="1296" width="100" height="40" as="geometry"/>
                </mxCell>
                <mxCell id="6" value="Time" style="ellipse;whiteSpace=wrap;html=1;align=center;fontStyle=0;labelBackgroundColor=none;fontColor=#000000;" vertex="1" parent="1">
                    <mxGeometry x="-150" y="1235" width="100" height="42" as="geometry"/>
                </mxCell>
                <mxCell id="7" value="&lt;font&gt;UserPW&lt;/font&gt;" style="ellipse;whiteSpace=wrap;html=1;align=center;labelBackgroundColor=none;fontColor=#000000;fillColor=#FFFFFF;" vertex="1" parent="1">
                    <mxGeometry x="331" y="1256" width="100" height="40" as="geometry"/>
                </mxCell>
                <mxCell id="8" value="&lt;font&gt;LastName&lt;/font&gt;" style="ellipse;whiteSpace=wrap;html=1;align=center;labelBackgroundColor=none;fontColor=#000000;fillColor=#FFFFFF;" vertex="1" parent="1">
                    <mxGeometry x="331" y="1336" width="100" height="40" as="geometry"/>
                </mxCell>
                <mxCell id="9" value="&lt;font&gt;FirstName&lt;/font&gt;" style="ellipse;whiteSpace=wrap;html=1;align=center;labelBackgroundColor=none;fontColor=#000000;fillColor=#FFFFFF;" vertex="1" parent="1">
                    <mxGeometry x="231" y="1336" width="100" height="40" as="geometry"/>
                </mxCell>
                <mxCell id="10" value="&lt;font&gt;UserName&lt;/font&gt;" style="ellipse;whiteSpace=wrap;html=1;align=center;labelBackgroundColor=none;fontColor=#000000;fillColor=#FFFFFF;" vertex="1" parent="1">
                    <mxGeometry x="231" y="1296" width="100" height="40" as="geometry"/>
                </mxCell>
                <mxCell id="11" value="Time" style="ellipse;whiteSpace=wrap;html=1;align=center;fontStyle=0;labelBackgroundColor=none;fontColor=#000000;fillColor=#FFFFFF;" vertex="1" parent="1">
                    <mxGeometry x="-149" y="1235" width="100" height="42" as="geometry"/>
                </mxCell>
                <mxCell id="12" value="Amount" style="ellipse;whiteSpace=wrap;html=1;align=center;fontStyle=0;labelBackgroundColor=none;fontColor=#000000;fillColor=#FFFFFF;" vertex="1" parent="1">
                    <mxGeometry x="-149" y="1156" width="100" height="40" as="geometry"/>
                </mxCell>
                <mxCell id="13" value="Date" style="ellipse;whiteSpace=wrap;html=1;align=center;fontStyle=0;labelBackgroundColor=none;fontColor=#000000;fillColor=#FFFFFF;" vertex="1" parent="1">
                    <mxGeometry x="-149" y="1196" width="100" height="40" as="geometry"/>
                </mxCell>
                <mxCell id="14" value="CatalogNumber" style="ellipse;whiteSpace=wrap;html=1;align=center;fontStyle=0;labelBackgroundColor=none;fontColor=#000000;fillColor=#FFFFFF;" vertex="1" parent="1">
                    <mxGeometry x="-69" y="1006" width="100" height="40" as="geometry"/>
                </mxCell>
                <mxCell id="15" value="HighhestBid" style="ellipse;whiteSpace=wrap;html=1;align=center;fontStyle=0;labelBackgroundColor=none;fontColor=#000000;fillColor=#FFFFFF;" vertex="1" parent="1">
                    <mxGeometry x="-169" y="1006" width="100" height="40" as="geometry"/>
                </mxCell>
                <mxCell id="16" value="TotalSum" style="ellipse;whiteSpace=wrap;html=1;align=center;fontStyle=0;labelBackgroundColor=none;fontColor=#000000;fillColor=#FFFFFF;" vertex="1" parent="1">
                    <mxGeometry x="900" y="915.5" width="100" height="40" as="geometry"/>
                </mxCell>
                <mxCell id="17" value="ShippmentDetails" style="ellipse;whiteSpace=wrap;html=1;align=center;fontStyle=0;labelBackgroundColor=none;fontColor=#000000;fillColor=#FFFFFF;" vertex="1" parent="1">
                    <mxGeometry x="895" y="869.5" width="110" height="46" as="geometry"/>
                </mxCell>
                <mxCell id="18" value="SupplierName" style="ellipse;whiteSpace=wrap;html=1;align=center;fontStyle=0;labelBackgroundColor=none;fontColor=#000000;fillColor=#FFFFFF;" vertex="1" parent="1">
                    <mxGeometry x="720" y="754" width="100" height="40" as="geometry"/>
                </mxCell>
                <mxCell id="-xcbg-qOsnuhI51LGYwy-126" value="fk_set_products_id" style="ellipse;whiteSpace=wrap;html=1;align=center;fontStyle=0;labelBackgroundColor=none;fillColor=#e1d5e7;strokeColor=#9673a6;fontColor=#000000;" parent="1" vertex="1">
                    <mxGeometry x="900" y="827" width="110" height="40" as="geometry"/>
                </mxCell>
            </root>
        </mxGraphModel>
    </diagram>
</mxfile>